<mxfile host="app.diagrams.net" modified="2022-09-28T06:47:50.724Z" agent="5.0 (Windows NT 10.0; Win64; x64) AppleWebKit/537.36 (KHTML, like Gecko) Chrome/105.0.0.0 Safari/537.36" etag="EWNSk35P295QPo5SJggZ" version="20.3.0" type="github">
  <diagram id="cptIMoIXEm4kdrQcXqdX" name="หน้า-1">
    <mxGraphModel dx="1065" dy="456" grid="1" gridSize="10" guides="1" tooltips="1" connect="1" arrows="1" fold="1" page="1" pageScale="1" pageWidth="827" pageHeight="1169" math="0" shadow="0">
      <root>
        <mxCell id="0" />
        <mxCell id="1" parent="0" />
        <mxCell id="XjeXg0R7PSZDuUVRfq4N-6" value="" style="edgeStyle=orthogonalEdgeStyle;rounded=0;orthogonalLoop=1;jettySize=auto;html=1;" edge="1" parent="1">
          <mxGeometry relative="1" as="geometry">
            <mxPoint x="353" y="120" as="sourcePoint" />
            <mxPoint x="353" y="200" as="targetPoint" />
          </mxGeometry>
        </mxCell>
        <mxCell id="XjeXg0R7PSZDuUVRfq4N-9" value="" style="edgeStyle=orthogonalEdgeStyle;rounded=0;orthogonalLoop=1;jettySize=auto;html=1;fontSize=11;" edge="1" parent="1" source="XjeXg0R7PSZDuUVRfq4N-7" target="XjeXg0R7PSZDuUVRfq4N-8">
          <mxGeometry relative="1" as="geometry" />
        </mxCell>
        <mxCell id="XjeXg0R7PSZDuUVRfq4N-12" value="" style="edgeStyle=orthogonalEdgeStyle;rounded=0;orthogonalLoop=1;jettySize=auto;html=1;fontSize=11;" edge="1" parent="1" source="XjeXg0R7PSZDuUVRfq4N-7" target="XjeXg0R7PSZDuUVRfq4N-14">
          <mxGeometry relative="1" as="geometry">
            <mxPoint x="220" y="420" as="targetPoint" />
            <Array as="points">
              <mxPoint x="353" y="320" />
              <mxPoint x="220" y="320" />
              <mxPoint x="220" y="420" />
              <mxPoint x="223" y="420" />
            </Array>
          </mxGeometry>
        </mxCell>
        <mxCell id="XjeXg0R7PSZDuUVRfq4N-7" value="&lt;span style=&quot;color: rgb(60, 64, 67); font-family: Roboto, Arial, sans-serif; font-size: 14px; letter-spacing: 0.2px; text-align: left;&quot;&gt;Is temperature in the house falls &lt;/span&gt;&lt;span style=&quot;color: rgb(60, 64, 67); font-family: Roboto, Arial, sans-serif; letter-spacing: 0.2px; text-align: left;&quot;&gt;&lt;font style=&quot;font-size: 11px;&quot;&gt;&lt;b&gt;bellow 10&lt;/b&gt;&lt;/font&gt;&lt;/span&gt;&lt;b style=&quot;-webkit-tap-highlight-color: transparent; color: rgb(60, 64, 67); font-family: Roboto, Arial, sans-serif; font-size: 14px; letter-spacing: 0.2px; text-align: left;&quot;&gt;°C&lt;/b&gt;" style="rhombus;whiteSpace=wrap;html=1;" vertex="1" parent="1">
          <mxGeometry x="283" y="200" width="140" height="90" as="geometry" />
        </mxCell>
        <mxCell id="XjeXg0R7PSZDuUVRfq4N-70" style="edgeStyle=orthogonalEdgeStyle;rounded=0;orthogonalLoop=1;jettySize=auto;html=1;fontSize=11;" edge="1" parent="1" source="XjeXg0R7PSZDuUVRfq4N-8">
          <mxGeometry relative="1" as="geometry">
            <mxPoint x="730" y="49.99999999999994" as="targetPoint" />
          </mxGeometry>
        </mxCell>
        <mxCell id="XjeXg0R7PSZDuUVRfq4N-8" value="Boiler swiched on" style="rounded=1;whiteSpace=wrap;html=1;" vertex="1" parent="1">
          <mxGeometry x="513" y="215" width="120" height="60" as="geometry" />
        </mxCell>
        <mxCell id="XjeXg0R7PSZDuUVRfq4N-10" value="Yes" style="text;html=1;strokeColor=none;fillColor=none;align=center;verticalAlign=middle;whiteSpace=wrap;rounded=0;fontSize=11;" vertex="1" parent="1">
          <mxGeometry x="426" y="200" width="60" height="30" as="geometry" />
        </mxCell>
        <mxCell id="XjeXg0R7PSZDuUVRfq4N-13" value="No" style="text;html=1;strokeColor=none;fillColor=none;align=center;verticalAlign=middle;whiteSpace=wrap;rounded=0;fontSize=11;" vertex="1" parent="1">
          <mxGeometry x="223" y="350" width="60" height="30" as="geometry" />
        </mxCell>
        <mxCell id="XjeXg0R7PSZDuUVRfq4N-16" value="" style="edgeStyle=orthogonalEdgeStyle;rounded=0;orthogonalLoop=1;jettySize=auto;html=1;fontSize=11;" edge="1" parent="1" source="XjeXg0R7PSZDuUVRfq4N-14" target="XjeXg0R7PSZDuUVRfq4N-15">
          <mxGeometry relative="1" as="geometry" />
        </mxCell>
        <mxCell id="XjeXg0R7PSZDuUVRfq4N-25" value="" style="edgeStyle=orthogonalEdgeStyle;rounded=0;orthogonalLoop=1;jettySize=auto;html=1;fontSize=11;" edge="1" parent="1" source="XjeXg0R7PSZDuUVRfq4N-14" target="XjeXg0R7PSZDuUVRfq4N-24">
          <mxGeometry relative="1" as="geometry" />
        </mxCell>
        <mxCell id="XjeXg0R7PSZDuUVRfq4N-14" value="Is it during the week" style="rhombus;whiteSpace=wrap;html=1;fontSize=11;" vertex="1" parent="1">
          <mxGeometry x="163" y="510" width="120" height="80" as="geometry" />
        </mxCell>
        <mxCell id="XjeXg0R7PSZDuUVRfq4N-38" value="" style="edgeStyle=orthogonalEdgeStyle;rounded=0;orthogonalLoop=1;jettySize=auto;html=1;fontSize=11;" edge="1" parent="1" source="XjeXg0R7PSZDuUVRfq4N-15" target="XjeXg0R7PSZDuUVRfq4N-37">
          <mxGeometry relative="1" as="geometry" />
        </mxCell>
        <mxCell id="XjeXg0R7PSZDuUVRfq4N-15" value="Is it 6:00 - 8:30 or 17:30 - 22:00" style="rhombus;whiteSpace=wrap;html=1;fontSize=11;" vertex="1" parent="1">
          <mxGeometry x="360" y="510" width="120" height="80" as="geometry" />
        </mxCell>
        <mxCell id="XjeXg0R7PSZDuUVRfq4N-32" value="" style="edgeStyle=orthogonalEdgeStyle;rounded=0;orthogonalLoop=1;jettySize=auto;html=1;fontSize=11;" edge="1" parent="1" source="XjeXg0R7PSZDuUVRfq4N-24" target="XjeXg0R7PSZDuUVRfq4N-31">
          <mxGeometry relative="1" as="geometry" />
        </mxCell>
        <mxCell id="XjeXg0R7PSZDuUVRfq4N-41" style="edgeStyle=orthogonalEdgeStyle;rounded=0;orthogonalLoop=1;jettySize=auto;html=1;fontSize=11;" edge="1" parent="1" source="XjeXg0R7PSZDuUVRfq4N-24">
          <mxGeometry relative="1" as="geometry">
            <mxPoint x="100" y="80" as="targetPoint" />
            <Array as="points">
              <mxPoint x="100" y="600" />
            </Array>
          </mxGeometry>
        </mxCell>
        <mxCell id="XjeXg0R7PSZDuUVRfq4N-24" value="Is it 8:30 - 23:00" style="rhombus;whiteSpace=wrap;html=1;fontSize=11;" vertex="1" parent="1">
          <mxGeometry x="163" y="630" width="120" height="80" as="geometry" />
        </mxCell>
        <mxCell id="XjeXg0R7PSZDuUVRfq4N-28" value="No" style="text;html=1;strokeColor=none;fillColor=none;align=center;verticalAlign=middle;whiteSpace=wrap;rounded=0;fontSize=11;" vertex="1" parent="1">
          <mxGeometry x="233" y="590" width="60" height="30" as="geometry" />
        </mxCell>
        <mxCell id="XjeXg0R7PSZDuUVRfq4N-30" value="Yes" style="text;html=1;strokeColor=none;fillColor=none;align=center;verticalAlign=middle;whiteSpace=wrap;rounded=0;fontSize=11;" vertex="1" parent="1">
          <mxGeometry x="293" y="510" width="60" height="20" as="geometry" />
        </mxCell>
        <mxCell id="XjeXg0R7PSZDuUVRfq4N-46" value="" style="edgeStyle=orthogonalEdgeStyle;rounded=0;orthogonalLoop=1;jettySize=auto;html=1;fontSize=11;" edge="1" parent="1" source="XjeXg0R7PSZDuUVRfq4N-31" target="XjeXg0R7PSZDuUVRfq4N-45">
          <mxGeometry relative="1" as="geometry" />
        </mxCell>
        <mxCell id="XjeXg0R7PSZDuUVRfq4N-31" value="Is temperature is 22&lt;b style=&quot;-webkit-tap-highlight-color: transparent; color: rgb(60, 64, 67); font-family: Roboto, Arial, sans-serif; font-size: 14px; letter-spacing: 0.2px; text-align: left;&quot;&gt;°C&lt;/b&gt;" style="rhombus;whiteSpace=wrap;html=1;fontSize=11;" vertex="1" parent="1">
          <mxGeometry x="380" y="630" width="120" height="80" as="geometry" />
        </mxCell>
        <mxCell id="XjeXg0R7PSZDuUVRfq4N-42" style="edgeStyle=orthogonalEdgeStyle;rounded=0;orthogonalLoop=1;jettySize=auto;html=1;fontSize=11;" edge="1" parent="1" source="XjeXg0R7PSZDuUVRfq4N-33">
          <mxGeometry relative="1" as="geometry">
            <mxPoint x="100" y="80" as="targetPoint" />
            <Array as="points">
              <mxPoint x="100" y="90" />
            </Array>
          </mxGeometry>
        </mxCell>
        <mxCell id="XjeXg0R7PSZDuUVRfq4N-33" value="Start" style="rounded=0;whiteSpace=wrap;html=1;fontSize=11;" vertex="1" parent="1">
          <mxGeometry x="293" y="60" width="120" height="60" as="geometry" />
        </mxCell>
        <mxCell id="XjeXg0R7PSZDuUVRfq4N-34" value="Yes" style="text;html=1;strokeColor=none;fillColor=none;align=center;verticalAlign=middle;whiteSpace=wrap;rounded=0;fontSize=11;" vertex="1" parent="1">
          <mxGeometry x="300" y="630" width="60" height="30" as="geometry" />
        </mxCell>
        <mxCell id="XjeXg0R7PSZDuUVRfq4N-58" value="" style="edgeStyle=orthogonalEdgeStyle;rounded=0;orthogonalLoop=1;jettySize=auto;html=1;fontSize=11;" edge="1" parent="1" source="XjeXg0R7PSZDuUVRfq4N-37" target="XjeXg0R7PSZDuUVRfq4N-57">
          <mxGeometry relative="1" as="geometry" />
        </mxCell>
        <mxCell id="XjeXg0R7PSZDuUVRfq4N-37" value="Is temperature is 20&lt;b style=&quot;-webkit-tap-highlight-color: transparent; color: rgb(60, 64, 67); font-family: Roboto, Arial, sans-serif; font-size: 14px; letter-spacing: 0.2px; text-align: left;&quot;&gt;°C&lt;/b&gt;&lt;br&gt;&amp;nbsp;&lt;span style=&quot;color: rgba(0, 0, 0, 0); font-family: monospace; font-size: 0px; text-align: start;&quot;&gt;%3CmxGraphModel%3E%3Croot%3E%3CmxCell%20id%3D%220%22%2F%3E%3CmxCell%20id%3D%221%22%20parent%3D%220%22%2F%3E%3CmxCell%20id%3D%222%22%20value%3D%22Yes%22%20style%3D%22text%3Bhtml%3D1%3BstrokeColor%3Dnone%3BfillColor%3Dnone%3Balign%3Dcenter%3BverticalAlign%3Dmiddle%3BwhiteSpace%3Dwrap%3Brounded%3D0%3BfontSize%3D11%3B%22%20vertex%3D%221%22%20parent%3D%221%22%3E%3CmxGeometry%20x%3D%22300%22%20y%3D%22460%22%20width%3D%2260%22%20as%3D%22geometry%22%2F%3E%3C%2FmxCell%3E%3C%2Froot%3E%3C%2FmxGraphModel%3E&lt;/span&gt;&lt;span style=&quot;color: rgba(0, 0, 0, 0); font-family: monospace; font-size: 0px; text-align: start;&quot;&gt;%3CmxGraphModel%3E%3Croot%3E%3CmxCell%20id%3D%220%22%2F%3E%3CmxCell%20id%3D%221%22%20parent%3D%220%22%2F%3E%3CmxCell%20id%3D%222%22%20value%3D%22Yes%22%20style%3D%22text%3Bhtml%3D1%3BstrokeColor%3Dnone%3BfillColor%3Dnone%3Balign%3Dcenter%3BverticalAlign%3Dmiddle%3BwhiteSpace%3Dwrap%3Brounded%3D0%3BfontSize%3D11%3B%22%20vertex%3D%221%22%20parent%3D%221%22%3E%3CmxGeometry%20x%3D%22300%22%20y%3D%22460%22%20width%3D%2260%22%20as%3D%22geometry%22%2F%3E%3C%2FmxCell%3E%3C%2Froot%3E%3C%2FmxGraphModel%3E&lt;/span&gt;" style="rhombus;whiteSpace=wrap;html=1;fontSize=11;" vertex="1" parent="1">
          <mxGeometry x="580" y="510" width="120" height="80" as="geometry" />
        </mxCell>
        <mxCell id="XjeXg0R7PSZDuUVRfq4N-61" style="edgeStyle=orthogonalEdgeStyle;rounded=0;orthogonalLoop=1;jettySize=auto;html=1;fontSize=11;" edge="1" parent="1">
          <mxGeometry relative="1" as="geometry">
            <mxPoint x="530" y="510.0000000000001" as="targetPoint" />
            <mxPoint x="530" y="510" as="sourcePoint" />
          </mxGeometry>
        </mxCell>
        <mxCell id="XjeXg0R7PSZDuUVRfq4N-40" value="Yes" style="text;html=1;strokeColor=none;fillColor=none;align=center;verticalAlign=middle;whiteSpace=wrap;rounded=0;fontSize=11;" vertex="1" parent="1">
          <mxGeometry x="500" y="500" width="60" height="20" as="geometry" />
        </mxCell>
        <mxCell id="XjeXg0R7PSZDuUVRfq4N-44" value="No" style="text;html=1;strokeColor=none;fillColor=none;align=center;verticalAlign=middle;whiteSpace=wrap;rounded=0;fontSize=11;" vertex="1" parent="1">
          <mxGeometry x="103" y="555" width="60" height="30" as="geometry" />
        </mxCell>
        <mxCell id="XjeXg0R7PSZDuUVRfq4N-49" value="" style="edgeStyle=orthogonalEdgeStyle;rounded=0;orthogonalLoop=1;jettySize=auto;html=1;fontSize=11;entryX=0.5;entryY=0;entryDx=0;entryDy=0;" edge="1" parent="1" source="XjeXg0R7PSZDuUVRfq4N-45" target="XjeXg0R7PSZDuUVRfq4N-64">
          <mxGeometry relative="1" as="geometry">
            <mxPoint x="650" y="780" as="targetPoint" />
          </mxGeometry>
        </mxCell>
        <mxCell id="XjeXg0R7PSZDuUVRfq4N-53" style="edgeStyle=orthogonalEdgeStyle;rounded=0;orthogonalLoop=1;jettySize=auto;html=1;fontSize=11;" edge="1" parent="1" source="XjeXg0R7PSZDuUVRfq4N-45">
          <mxGeometry relative="1" as="geometry">
            <mxPoint x="760" y="930" as="targetPoint" />
          </mxGeometry>
        </mxCell>
        <mxCell id="XjeXg0R7PSZDuUVRfq4N-45" value="Is boiling on&amp;nbsp;" style="rhombus;whiteSpace=wrap;html=1;fontSize=11;" vertex="1" parent="1">
          <mxGeometry x="590" y="630" width="120" height="80" as="geometry" />
        </mxCell>
        <mxCell id="XjeXg0R7PSZDuUVRfq4N-47" value="Yes" style="text;html=1;strokeColor=none;fillColor=none;align=center;verticalAlign=middle;whiteSpace=wrap;rounded=0;fontSize=11;" vertex="1" parent="1">
          <mxGeometry x="513" y="630" width="60" height="30" as="geometry" />
        </mxCell>
        <mxCell id="XjeXg0R7PSZDuUVRfq4N-51" style="edgeStyle=orthogonalEdgeStyle;rounded=0;orthogonalLoop=1;jettySize=auto;html=1;fontSize=11;" edge="1" parent="1">
          <mxGeometry relative="1" as="geometry">
            <mxPoint x="50" y="120" as="targetPoint" />
            <mxPoint x="590" y="820" as="sourcePoint" />
          </mxGeometry>
        </mxCell>
        <mxCell id="XjeXg0R7PSZDuUVRfq4N-50" value="Yes" style="text;html=1;strokeColor=none;fillColor=none;align=center;verticalAlign=middle;whiteSpace=wrap;rounded=0;fontSize=11;" vertex="1" parent="1">
          <mxGeometry x="573" y="720" width="60" height="30" as="geometry" />
        </mxCell>
        <mxCell id="XjeXg0R7PSZDuUVRfq4N-52" value="" style="endArrow=classic;html=1;rounded=0;fontSize=11;" edge="1" parent="1">
          <mxGeometry width="50" height="50" relative="1" as="geometry">
            <mxPoint x="50" y="130" as="sourcePoint" />
            <mxPoint x="110" y="130" as="targetPoint" />
          </mxGeometry>
        </mxCell>
        <mxCell id="XjeXg0R7PSZDuUVRfq4N-54" value="No" style="text;html=1;strokeColor=none;fillColor=none;align=center;verticalAlign=middle;whiteSpace=wrap;rounded=0;fontSize=11;" vertex="1" parent="1">
          <mxGeometry x="700" y="630" width="60" height="30" as="geometry" />
        </mxCell>
        <mxCell id="XjeXg0R7PSZDuUVRfq4N-55" value="" style="endArrow=classic;html=1;rounded=0;fontSize=11;" edge="1" parent="1">
          <mxGeometry width="50" height="50" relative="1" as="geometry">
            <mxPoint x="765" y="930" as="sourcePoint" />
            <mxPoint x="535" y="930" as="targetPoint" />
          </mxGeometry>
        </mxCell>
        <mxCell id="XjeXg0R7PSZDuUVRfq4N-56" value="" style="endArrow=classic;html=1;rounded=0;fontSize=11;" edge="1" parent="1">
          <mxGeometry width="50" height="50" relative="1" as="geometry">
            <mxPoint x="542.58" y="940" as="sourcePoint" />
            <mxPoint x="542.58" y="820" as="targetPoint" />
          </mxGeometry>
        </mxCell>
        <mxCell id="XjeXg0R7PSZDuUVRfq4N-63" value="" style="edgeStyle=orthogonalEdgeStyle;rounded=0;orthogonalLoop=1;jettySize=auto;html=1;fontSize=11;" edge="1" parent="1" source="XjeXg0R7PSZDuUVRfq4N-57">
          <mxGeometry relative="1" as="geometry">
            <mxPoint x="500" y="390" as="targetPoint" />
          </mxGeometry>
        </mxCell>
        <mxCell id="XjeXg0R7PSZDuUVRfq4N-57" value="Is Boiling on&amp;nbsp;" style="rhombus;whiteSpace=wrap;html=1;fontSize=11;" vertex="1" parent="1">
          <mxGeometry x="580" y="350" width="120" height="80" as="geometry" />
        </mxCell>
        <mxCell id="XjeXg0R7PSZDuUVRfq4N-59" value="Yes" style="text;html=1;strokeColor=none;fillColor=none;align=center;verticalAlign=middle;whiteSpace=wrap;rounded=0;fontSize=11;" vertex="1" parent="1">
          <mxGeometry x="640" y="460" width="60" height="20" as="geometry" />
        </mxCell>
        <mxCell id="XjeXg0R7PSZDuUVRfq4N-64" value="Turn off boiling" style="rounded=1;whiteSpace=wrap;html=1;fontSize=11;" vertex="1" parent="1">
          <mxGeometry x="590" y="790" width="120" height="60" as="geometry" />
        </mxCell>
        <mxCell id="XjeXg0R7PSZDuUVRfq4N-72" style="edgeStyle=orthogonalEdgeStyle;rounded=0;orthogonalLoop=1;jettySize=auto;html=1;fontSize=11;" edge="1" parent="1" source="XjeXg0R7PSZDuUVRfq4N-66">
          <mxGeometry relative="1" as="geometry">
            <mxPoint x="440" y="290" as="targetPoint" />
          </mxGeometry>
        </mxCell>
        <mxCell id="XjeXg0R7PSZDuUVRfq4N-66" value="Turn off boilig" style="rounded=1;whiteSpace=wrap;html=1;fontSize=11;" vertex="1" parent="1">
          <mxGeometry x="380" y="360" width="120" height="60" as="geometry" />
        </mxCell>
        <mxCell id="XjeXg0R7PSZDuUVRfq4N-68" value="yes" style="text;html=1;strokeColor=none;fillColor=none;align=center;verticalAlign=middle;whiteSpace=wrap;rounded=0;fontSize=11;" vertex="1" parent="1">
          <mxGeometry x="520" y="350" width="60" height="30" as="geometry" />
        </mxCell>
        <mxCell id="XjeXg0R7PSZDuUVRfq4N-71" value="" style="endArrow=classic;html=1;rounded=0;fontSize=11;entryX=1;entryY=0.25;entryDx=0;entryDy=0;" edge="1" parent="1" target="XjeXg0R7PSZDuUVRfq4N-33">
          <mxGeometry width="50" height="50" relative="1" as="geometry">
            <mxPoint x="730" y="75" as="sourcePoint" />
            <mxPoint x="600" y="70" as="targetPoint" />
          </mxGeometry>
        </mxCell>
        <mxCell id="XjeXg0R7PSZDuUVRfq4N-73" value="" style="endArrow=classic;html=1;rounded=0;fontSize=11;" edge="1" parent="1">
          <mxGeometry width="50" height="50" relative="1" as="geometry">
            <mxPoint x="440" y="300" as="sourcePoint" />
            <mxPoint x="730" y="300" as="targetPoint" />
          </mxGeometry>
        </mxCell>
        <mxCell id="XjeXg0R7PSZDuUVRfq4N-74" value="" style="endArrow=classic;html=1;rounded=0;fontSize=11;" edge="1" parent="1">
          <mxGeometry width="50" height="50" relative="1" as="geometry">
            <mxPoint x="729.58" y="310" as="sourcePoint" />
            <mxPoint x="729.58" y="240" as="targetPoint" />
          </mxGeometry>
        </mxCell>
      </root>
    </mxGraphModel>
  </diagram>
</mxfile>
